<svg xmlns="http://www.w3.org/2000/svg" width="200" height="48" viewBox="0 0 200 48">
  <style>
    .logo-text { font-family: Arial, sans-serif; font-weight: bold; fill: #0ea5e9; font-size: 24px; }
    .tagline { font-family: Arial, sans-serif; fill: #64748b; font-size: 12px; }
    .icon { fill: #0ea5e9; }
  </style>
  <g>
    <path class="icon" d="M20,10 C16,10 12,12 12,16 L12,32 C12,36 16,38 20,38 L28,38 C32,38 36,36 36,32 L36,16 C36,12 32,10 28,10 L20,10 Z M20,14 L28,14 C30,14 32,15 32,16 L32,32 C32,33 30,34 28,34 L20,34 C18,34 16,33 16,32 L16,16 C16,15 18,14 20,14 Z" />
    <path class="icon" d="M22,18 L26,18 L26,22 L22,22 Z" />
    <path class="icon" d="M22,26 L26,26 L26,30 L22,30 Z" />
    <text x="44" y="28" class="logo-text">FarmShift</text>
    <text x="44" y="42" class="tagline">Simple Scheduling for Danish Farms</text>
  </g>
</svg>
